Patient4_TMGait_0pt4_01_left_17_EMG.mot
version=1
nRows=20
nColumns=33
inDegrees=no
endheader
time	1LAddLong	2LGlutMax	3LGlutMed	4LIliopsoas	5LSemiMemb	6LBicFemLong	7LRecFem	8LVastMed	9LVastLat	10LGasMed	11LTibAnt	12lTibPost	13LPeroneusLong	14LSol	15LExtDigLong	16LFlexDigLong	17RAddLong	18RGlutMax	19RGlutMed	20RIliopsoas	21RSemiMemb	22RBicFemLong	23RRecFem	24RVastMed	25RVastLat	26RGasMed	27RTibAnt	28RTibPost	29RPeroneusLong	30RSol	31RExtDigLong	32RFlexDigLong
21.22	0	0.034027	-0.059509	0.006714	0.001678	-0.00061	0.11597	-0.019226	-0.091248	0.047302	0.16083	0.00351	0.054932	-0.17364	0.09613	-0.002899	-0.02182	0.16434	0.033112	-0.002594	-0.18677	0.13336	0.18387	-0.15366	-0.18906	0.037689	-1.2381	0.092926	-0.025482	-0.03067	-0.001831	-0.010681
21.221	0.003052	0.052948	-0.003967	0.00412	0.001526	-0.008698	0.10239	-0.006714	-0.055542	0.025177	0.076141	0.002136	0.029755	-0.19913	-0.02533	0.001831	-0.017242	0.29724	-0.045319	-0.003052	-0.050964	0.027313	0.093231	-0.20081	-0.20035	0.02182	-1.6415	0.051575	0.074463	0.12802	-0.003052	-0.00473
21.222	0.000153	0.031281	0.058899	0.002747	0.01358	-0.017853	0.092773	0.006409	-0.018616	-0.008392	-0.047302	0.005035	0.070953	-0.11765	-0.21149	-0.001373	-0.000305	0.42282	-0.10346	0.001984	-0.008545	0.021057	-0.2594	-0.19409	-0.14206	0.027618	-0.96878	0.013733	0.11154	-0.23224	0.001831	0.001984
21.223	0.005341	0.061951	-0.002899	-0.000916	0.011292	-0.016174	0.08728	0.000305	0.014801	0.002136	-0.11917	0.005035	0.14481	-0.075989	-0.1532	0.001221	0.012512	0.5246	-0.12619	0.025635	-0.060883	0.022888	-0.17624	-0.22614	-0.1239	0.0177	-0.33676	0.002289	0.083008	-0.68207	-0.00061	0.003204
21.224	0.002899	0.007782	-0.014954	-0.001984	0.005646	-0.002289	0.078125	0.005188	0.017548	0.007629	-0.016174	0.013123	0.020905	-0.068817	-0.06134	0.001678	0.021973	0.54474	0.031738	-0.010071	-0.051117	0.026855	-0.058289	0	0.066833	-0.014191	-0.13351	0.001831	-0.11108	-0.15305	-0.001678	-0.001526
21.225	0.020752	0.011902	-0.028381	-0.00061	-0.002747	0.003815	0.093079	0.012817	0.046387	0.004272	0.0737	0.004272	-0.031891	-0.097046	0.028534	-0.00473	0.028992	0.54489	0.17288	-0.005798	-0.028992	0.012665	-0.036926	0.061798	0.20523	-0.00824	-0.29327	0.002136	-0.066833	0.69565	-0.002594	-0.004425
21.226	0.012665	0.004578	-0.015869	0.004425	-0.011597	0.005341	0.077972	0.003662	0.058899	-0.009308	0.018463	-0.010834	0.036316	-0.11246	0.19348	0.001373	0.029144	0.5455	0.069885	0.031433	0.16205	0.023499	-0.13107	-0.084686	0.042725	-0.002289	-0.44464	-0.00412	-0.037079	0.70618	-0.007172	0.002441
21.227	0.019531	-0.026093	-0.027313	-0.001221	0.019531	0.003815	0.074158	0.003967	0.077057	-0.006256	0.022278	0.009003	0.064392	-0.20813	0.33936	0.002899	0.016022	0.56168	0.10239	0.016632	0.047302	0.016937	0.034943	-0.13947	-0.072327	-0.018311	-0.55237	0.001831	0.047302	0.35584	-0.004425	0.008087
21.228	0.002136	-0.018463	-0.042114	0.003357	0.034943	0.008087	0.058136	0.008392	0.090942	-0.036774	-0.057678	0.006866	0.015717	-0.1506	-0.046082	-0.000916	0.005035	0.55725	0.26733	0.020599	-0.13245	-0.030975	0.18158	-0.13992	-0.043182	-0.006256	-0.448	-0.003967	0.056305	-0.07309	-0.002441	0.001373
21.229	0.007019	-0.026398	-0.053558	0.000458	0.028687	-0.007172	0.063171	0.009918	0.091858	-0.028992	-0.046844	0.007019	0.007477	-0.078583	-0.069122	0.002747	-0.000458	0.51117	0.21027	0.054016	-0.055847	-0.073395	-0.092926	-0.085297	0.084839	-0.019226	-0.1506	-0.010681	-0.032654	-0.25177	0.005798	0.004883
21.23	0.005951	-0.054626	-0.085144	0.008392	0.018616	0.008392	0.05661	0.006409	0.080872	-0.024109	-0.006866	-0.007477	0.002899	0.019531	-0.19928	-0.005341	0.001526	0.55008	0.1442	0.05722	-0.022888	-0.046234	-0.17578	0.0383	0.11932	-0.083618	-0.078735	-0.010071	-0.13077	-0.20325	-0.001984	-0.006104
21.231	0.007019	-0.044861	-0.087891	0.005646	0.014343	-0.010986	0.046997	0.001526	0.10193	-0.030823	0.041351	-0.000153	-0.044708	0.042572	-0.13062	-0.005341	-0.027008	0.5603	0.21072	-0.033722	-0.00412	0.005188	-0.29144	0.1088	0.21316	-0.07843	0.036316	-0.010834	-0.20721	-0.10025	-0.002136	0.001068
21.232	0.002289	-0.063934	-0.12207	-0.019073	0.00946	0.00885	0.044861	0.006256	0.1178	-0.040436	0.071564	0.001984	-0.051422	0.062866	0.069427	0.005951	-0.010376	0.52536	0.12741	-0.20264	-0.020752	-0.011139	-0.16464	0.033264	0.10239	0.012207	0.055389	-0.006256	-0.24704	-0.014343	0.000763	-0.003357
21.233	0.006866	-0.067902	-0.14816	0.010529	0.013275	0.019989	0.042877	0.001831	0.13001	-0.070953	0.02594	0.003967	-0.018768	0.071411	0.001984	0.007019	0.015259	0.45837	0.12466	-0.19928	0.015259	-0.019073	-0.13184	-0.003815	0.056763	0.010376	0.37109	-0.006409	-0.22278	-0.056458	0.000305	-0.009155
21.234	0.015717	-0.068054	-0.16922	0.010986	0.035706	0.03952	0.032043	0.007172	0.13214	-0.045624	0.016022	0.003662	-0.036316	0.013428	0.10941	0.00946	0.033112	0.38635	-0.031586	-0.13519	0.062714	-0.035553	-0.059357	0.031128	0.086212	-0.002899	0.345	-0.007782	-0.12253	-0.1326	-0.002136	-0.010986
21.235	0.008392	-0.055237	-0.069427	-0.003052	0.031738	0.065308	0.026703	0.007629	0.14755	-0.066376	-0.063019	0.000153	-0.020905	0.01709	-0.020447	0.00946	0.02243	0.30212	-0.2623	-0.023956	0.072784	-0.006866	-0.092468	0.077515	0.17899	-0.015259	-0.024414	0.000305	-0.001526	-0.15488	-0.003052	-0.016327
21.236	0.004578	-0.072479	0.025177	0.005646	-0.037994	0.066833	0.014191	0.00473	0.14771	-0.066071	-0.046997	0.010071	0.016632	-0.045319	-0.063477	0.009766	-0.000305	0.26657	-0.3978	0.18509	-0.064697	-0.009003	-0.1947	-0.001068	0.17716	-0.019531	-0.07431	-0.007019	0.11185	-0.1062	-0.001984	-0.016479
21.237	0.013428	-0.079041	-0.000305	0.010376	-0.089264	0.013123	0.026093	0.004425	0.14679	-0.10346	0.045319	0.005188	0.010681	-0.12375	0.008392	-0.000153	-0.011902	0.21439	-0.13275	0.32715	-0.11475	-0.083618	-0.23102	-0.092468	0.12741	-0.019531	0.63004	-0.002136	0.11475	-0.094757	0.002136	-0.010986
21.238	0.007782	-0.094299	-0.031586	-0.00061	-0.083771	-0.031891	0.031433	0.002441	0.15274	-0.11627	0.075836	-0.000763	-0.002899	-0.11383	-0.003815	0.001831	0.011292	0.1152	0.22964	0.19547	-0.039673	-0.14343	-0.12482	-0.086212	0.082703	-0.006256	1.2589	-0.005188	0.024719	-0.088959	-0.003662	-0.014496
21.239	0.010071	-0.087738	-0.001068	0.005951	0.007019	-0.058899	0.037079	0.005646	0.15808	-0.081787	0.053864	0.005188	0.042877	-0.074921	-0.030975	0.006256	0.030518	0.032501	0.70862	0.10468	-0.03952	-0.15213	0.069427	-0.030212	-0.053101	-0.002747	0.91126	-0.000763	-0.067902	0.009613	0.00351	-0.012665
